<svg xmlns="http://www.w3.org/2000/svg" version="1.1" xmlns:xlink="http://www.w3.org/1999/xlink" xmlns:svgjs="http://svgjs.dev/svgjs" viewBox="0 0 800 800"><defs><linearGradient x1="50%" y1="0%" x2="50%" y2="100%" id="ccchaos-grad"><stop stop-color="hsl(206, 75%, 49%)" stop-opacity="1" offset="0%"></stop><stop stop-color="hsl(331, 90%, 56%)" stop-opacity="1" offset="100%"></stop></linearGradient></defs><g stroke-width="2" stroke="url(#ccchaos-grad)" fill="none" stroke-linecap="round"><path d="M380.7 124.54C390.12 126.62 399.54 128.39 408.94 129.8 418.36 130.34 427.79 130.55 437.22 130.52 446.7 129.85 456.21 129.21 465.76 128.75 475.4 128.15 485.11 128.06 494.9 128.63 504.81 129.53 514.83 131.33 524.94 134.08 535.2 137.42 545.56 141.78 555.99 147.11 566.53 153.05 577.11 159.87 587.66 167.45 598.22 175.48 608.64 184.09 618.83 193.17 628.84 202.46 638.46 212.04 647.53 221.8 656.2 231.57 664.12 241.41 671.15 251.27 677.53 260.99 682.85 270.7 686.97 280.36 690.29 289.85 692.34 299.31 693.07 308.76 693.04 318.05 691.77 327.37 689.34 336.75 686.42 346.01 682.6 355.38 678.06 364.89 673.54 374.33 668.69 383.95 663.73 393.76 659.41 403.55 655.38 413.56 651.84 423.79 649.43 434.01 647.78 444.21 646.89 454.36 647.2 464.49 648.15 474.54 649.63 484.43 652 494.27 654.59 503.89 657.21 513.22 660.24 522.4 662.93 531.18 665.13 539.47 667.24 547.49 668.55 554.9 668.97 561.6 668.39 570.7 661.01 584.15 654.22 588.46 648.77 590.83 642.39 592.52 635.19 593.66 627.52 594.95 619.18 596.03 610.26 597.12 601.06 598.92 591.43 601.16 581.48 604.07 571.4 608.21 561.1 613.35 550.67 619.57 540.21 627.19 529.68 635.87 519.16 645.45 508.66 655.95 498.18 666.83 487.77 677.68 477.39 688.34 467.09 698.09 456.87 706.44 446.69 713.31 436.59 718 426.59 720.19 416.61 720.21 406.71 717.58 396.91 712.4 387.11 705.53 377.63 697.01 368.45 687.43 359.26 677.7 350.37 667.98 341.78 658.8 333.15 650.85 324.81 644.11 316.75 638.76 308.64 635.21 300.79 633.06 293.21 632.14 285.56 632.7 278.14 633.98 270.97 635.65 263.68 637.94 256.61 639.97 249.74 641.44 242.73 642.68 235.9 642.88 229.24 641.91 222.42 640.18 215.75 637.11 209.25 632.74 202.57 627.5 196.04 621.05 189.68 613.53 183.17 605.32 176.84 596.26 170.74 586.53 164.52 576.39 158.55 565.8 152.88 554.94 147.17 543.89 141.8 532.72 136.84 521.53 131.92 510.32 127.46 499.18 123.5 488.17 119.68 477.19 116.42 466.37 113.75 455.75 111.29 445.16 109.46 434.75 108.3 424.55 107.37 414.37 107.11 404.37 107.57 394.58 108.23 384.78 109.56 375.41 111.5 366.46 113.59 357.49 116.23 348.92 119.38 340.77 122.58 332.58 126.22 324.78 130.25 317.36 134.24 309.89 138.57 302.76 143.18 295.96 147.67 289.04 152.41 282.39 157.36 275.96 162.13 269.33 167.1 262.83 172.24 256.41 177.18 249.68 182.31 242.93 187.61 236.13 192.72 228.91 198.03 221.56 203.54 214.07 208.9 206.16 214.49 198.11 220.33 189.97 226.06 181.54 232.06 173.14 238.33 164.88 244.55 156.62 251.07 148.72 257.88 141.36 264.66 134.36 271.75 128.15 279.14 122.87 286.53 118.27 294.21 114.78 302.17 112.46 310.14 110.88 318.38 110.44 326.88 111.07 335.37 112.18 344.12 114.09 353.1 116.64 362.07 119.1 371.27 121.8 380.69 124.54" stroke-dasharray="7 5" transform="rotate(0, 400, 400)" opacity="0.05"></path><path d="M383.44 135.85C392.56 137.91 401.71 139.7 410.88 141.15 420.06 141.78 429.29 142.08 438.55 142.15 447.85 141.58 457.21 141.01 466.63 140.56 476.12 139.92 485.69 139.71 495.34 140.08 505.09 140.68 514.93 142.09 524.85 144.35 534.87 147.14 544.95 150.88 555.06 155.54 565.24 160.78 575.38 166.88 585.44 173.76 595.45 181.11 605.26 189.09 614.77 197.58 624.07 206.35 632.93 215.48 641.2 224.87 649.05 234.34 656.16 243.95 662.38 253.64 667.99 263.28 672.57 272.94 676.04 282.58 678.77 292.11 680.34 301.62 680.71 311.1 680.41 320.47 679.01 329.85 676.56 339.24 673.72 348.54 670.08 357.91 665.8 367.34 661.58 376.72 657.07 386.21 652.46 395.81 648.46 405.4 644.71 415.13 641.37 424.97 639.07 434.82 637.43 444.56 636.47 454.16 636.59 463.73 637.29 473.14 638.47 482.31 640.47 491.42 642.69 500.23 644.97 508.67 647.66 516.98 650.09 524.82 652.11 532.13 654.76 542.44 655.76 559.27 653.67 565.59 649.83 570.79 636.57 577.69 627.4 579.95 620.58 581.63 613.07 583.28 604.98 585.08 596.59 587.66 587.74 590.75 578.52 594.54 569.14 599.5 559.5 605.38 549.67 612.23 539.79 620.3 529.79 629.23 519.74 638.85 509.69 649.18 499.63 659.69 489.6 670 479.59 680.01 469.62 689.04 459.72 696.66 449.85 702.87 440.05 707.02 430.33 708.83 420.63 708.66 411.01 706.06 401.49 701.09 391.96 694.59 382.74 686.54 373.82 677.47 364.88 668.2 356.23 658.85 347.87 649.89 339.47 641.99 331.35 635.09 323.49 629.4 315.57 625.33 307.9 622.53 300.49 620.88 292.98 620.66 285.7 621.2 278.64 622.23 271.47 623.98 264.49 625.66 257.7 627 250.77 628.3 244.01 628.8 237.41 628.34 230.65 627.34 224.04 625.17 217.59 621.84 210.97 617.77 204.51 612.56 198.22 606.31 191.79 599.4 185.54 591.62 179.52 583.11 173.4 574.15 167.54 564.66 161.97 554.77 156.39 544.65 151.14 534.3 146.29 523.84 141.51 513.28 137.16 502.71 133.32 492.19 129.61 481.67 126.45 471.25 123.87 460.97 121.5 450.72 119.74 440.62 118.64 430.71 117.77 420.81 117.56 411.1 118.03 401.58 118.72 392.07 120.06 382.96 121.99 374.27 124.06 365.55 126.68 357.22 129.8 349.28 132.96 341.29 136.56 333.66 140.54 326.36 144.49 318.99 148.76 311.91 153.32 305.1 157.76 298.15 162.45 291.41 167.35 284.82 172.07 278.02 176.99 271.29 182.08 264.6 186.97 257.59 192.04 250.54 197.28 243.41 202.32 235.91 207.55 228.3 212.97 220.56 218.22 212.49 223.69 204.33 229.38 196.14 234.95 187.77 240.77 179.5 246.85 171.46 252.84 163.5 259.11 155.97 265.65 149.03 272.15 142.51 278.94 136.79 286.02 132.01 293.07 127.89 300.41 124.84 308.02 122.91 315.62 121.67 323.5 121.48 331.65 122.3 339.78 123.52 348.17 125.49 356.81 128.04 365.44 130.48 374.31 133.14 383.43 135.85" stroke-dasharray="6 9" transform="rotate(4.04, 400, 400)" opacity="0.09"></path><path d="M386.87 147.15C395.69 149.21 404.58 151.01 413.51 152.49 422.45 153.2 431.46 153.6 440.51 153.76 449.61 153.31 458.78 152.82 468.01 152.41 477.3 151.76 486.68 151.47 496.12 151.67 505.64 152.02 515.23 153.09 524.86 154.92 534.56 157.2 544.29 160.35 553.99 164.36 563.71 168.91 573.36 174.3 582.85 180.46 592.25 187.08 601.4 194.37 610.2 202.2 618.77 210.36 626.85 218.93 634.32 227.83 641.38 236.87 647.69 246.13 653.15 255.51 658.03 264.92 661.94 274.39 664.81 283.88 667.03 293.32 668.18 302.76 668.24 312.18 667.73 321.53 666.23 330.87 663.8 340.2 661.06 349.47 657.61 358.75 653.6 368.05 649.68 377.32 645.5 386.64 641.23 395.99 637.53 405.34 634.04 414.74 630.91 424.19 628.71 433.63 627.09 442.89 626.07 451.92 626.02 460.93 626.49 469.7 627.38 478.15 629.05 486.55 630.92 494.59 632.86 502.21 635.22 509.7 637.37 516.71 639.18 523.16 641.67 532.26 642.99 546.96 641.4 552.51 638.29 557.23 626.97 564.14 618.92 566.92 612.9 569.12 606.2 571.41 598.91 573.97 591.33 577.33 583.26 581.25 574.79 585.85 566.14 591.53 557.19 598.04 548.01 605.38 538.75 613.75 529.33 622.8 519.81 632.36 510.27 642.41 500.67 652.47 491.07 662.21 481.48 671.53 471.89 679.85 462.36 686.77 452.84 692.35 443.36 695.98 433.96 697.44 424.57 697.11 415.24 694.53 406 689.79 396.75 683.64 387.8 676.05 379.13 667.48 370.44 658.67 362.02 649.71 353.88 641.01 345.7 633.19 337.77 626.21 330.09 620.25 322.35 615.74 314.84 612.36 307.56 610.04 300.2 609.08 293.04 608.89 286.08 609.24 279.01 610.4 272.12 611.63 265.4 612.69 258.55 613.89 251.85 614.5 245.31 614.37 238.62 613.88 232.07 612.41 225.68 609.92 219.14 606.85 212.75 602.73 206.53 597.63 200.2 591.94 194.05 585.38 188.13 578.06 182.13 570.3 176.39 561.94 170.94 553.11 165.49 544.01 160.39 534.58 155.66 524.95 151.02 515.18 146.81 505.31 143.08 495.41 139.51 485.47 136.46 475.56 133.98 465.74 131.7 455.92 130.03 446.21 128.99 436.65 128.17 427.1 128 417.69 128.5 408.46 129.21 399.23 130.54 390.38 132.46 381.91 134.51 373.42 137.1 365.27 140.16 357.47 143.29 349.62 146.84 342.08 150.76 334.83 154.65 327.49 158.86 320.39 163.36 313.49 167.75 306.45 172.38 299.55 177.22 292.77 181.9 285.75 186.77 278.78 191.8 271.81 196.65 264.54 201.67 257.22 206.84 249.81 211.83 242.1 217 234.29 222.33 226.4 227.5 218.25 232.87 210.08 238.44 201.95 243.88 193.73 249.55 185.68 255.44 177.94 261.25 170.35 267.31 163.26 273.63 156.79 279.89 150.77 286.41 145.57 293.21 141.29 299.97 137.66 307 135.04 314.31 133.48 321.59 132.55 329.14 132.61 336.96 133.59 344.76 134.92 352.82 136.92 361.15 139.46 369.46 141.88 378.03 144.49 386.86 147.15" stroke-dasharray="11 1" transform="rotate(8.08, 400, 400)" opacity="0.13"></path><path d="M390.83 158.46C399.37 160.49 407.99 162.3 416.66 163.82 425.35 164.6 434.12 165.1 442.94 165.37 451.8 165.03 460.73 164.64 469.72 164.29 478.77 163.66 487.88 163.33 497.05 163.4 506.26 163.56 515.53 164.33 524.8 165.79 534.11 167.6 543.41 170.21 552.63 173.61 561.83 177.5 570.91 182.18 579.78 187.61 588.54 193.5 597 200.05 605.07 207.18 612.88 214.64 620.18 222.58 626.88 230.88 633.17 239.38 638.73 248.15 643.46 257.11 647.67 266.15 650.97 275.3 653.31 284.51 655.07 293.73 655.86 302.97 655.67 312.2 655 321.41 653.44 330.6 651.06 339.77 648.43 348.91 645.19 358.04 641.45 367.14 637.82 376.22 633.97 385.31 630.03 394.37 626.61 403.43 623.38 412.48 620.44 421.49 618.35 430.5 616.76 439.26 615.68 447.74 615.49 456.19 615.74 464.33 616.37 472.12 617.72 479.85 619.26 487.18 620.88 494.06 622.91 500.84 624.77 507.12 626.36 512.87 629.37 527.58 626.41 543.8 622.3 547.54 616.8 551.27 601.55 559.05 592.06 563.87 585.26 567.98 577.95 572.65 570.23 577.97 562.32 584.25 554.08 591.26 545.57 598.96 536.96 607.49 528.15 616.54 519.2 625.91 510.22 635.6 501.13 645.16 492.01 654.28 482.88 662.92 473.72 670.52 464.58 676.76 455.45 681.73 446.34 684.88 437.27 686.03 428.22 685.54 419.21 683 410.26 678.48 401.31 672.69 392.63 665.54 384.21 657.46 375.78 649.11 367.59 640.55 359.65 632.15 351.68 624.46 343.94 617.45 336.43 611.3 328.86 606.42 321.5 602.54 314.35 599.62 307.12 597.96 300.07 597.06 293.21 596.74 286.24 597.25 279.43 597.95 272.78 598.63 266.02 599.59 259.39 600.15 252.91 600.15 246.3 599.97 239.82 598.99 233.5 597.16 227.05 594.88 220.75 591.67 214.62 587.57 208.4 582.97 202.37 577.53 196.56 571.34 190.7 564.73 185.1 557.49 179.79 549.73 174.49 541.69 169.53 533.24 164.96 524.51 160.47 515.62 156.4 506.54 152.81 497.35 149.37 488.09 146.44 478.79 144.07 469.51 141.9 460.21 140.31 450.96 139.33 441.81 138.58 432.65 138.45 423.6 138.97 414.68 139.69 405.75 141.02 397.15 142.9 388.88 144.94 380.59 147.48 372.6 150.49 364.9 153.56 357.15 157.05 349.66 160.89 342.39 164.72 335.04 168.87 327.87 173.29 320.85 177.62 313.69 182.19 306.62 186.96 299.61 191.6 292.4 196.41 285.19 201.39 277.97 206.2 270.49 211.17 262.95 216.28 255.35 221.23 247.49 226.33 239.58 231.59 231.64 236.7 223.52 241.98 215.44 247.44 207.47 252.78 199.49 258.32 191.76 264.07 184.39 269.72 177.25 275.61 170.64 281.73 164.68 287.78 159.19 294.08 154.51 300.63 150.74 307.13 147.58 313.9 145.38 320.93 144.18 327.92 143.55 335.19 143.82 342.71 144.94 350.2 146.36 357.97 148.39 365.99 150.91 374 153.29 382.28 155.85 390.82 158.46" stroke-dasharray="10 11" transform="rotate(12.12, 400, 400)" opacity="0.16"></path><path d="M395.18 169.76C403.44 171.77 411.78 173.58 420.18 175.13 428.59 175.98 437.09 176.58 445.64 176.96 454.22 176.75 462.88 176.46 471.58 176.19 480.32 175.61 489.12 175.27 497.94 175.26 506.79 175.26 515.66 175.8 524.51 176.93 533.36 178.33 542.16 180.46 550.85 183.3 559.48 186.56 567.95 190.57 576.17 195.29 584.24 200.43 591.99 206.24 599.32 212.62 606.38 219.35 612.93 226.58 618.88 234.21 624.43 242.08 629.29 250.26 633.36 258.68 636.95 267.22 639.7 275.92 641.56 284.73 642.93 293.59 643.42 302.5 643.02 311.43 642.23 320.37 640.65 329.31 638.35 338.21 635.86 347.12 632.83 355.99 629.36 364.82 626.02 373.64 622.48 382.42 618.85 391.14 615.71 399.86 612.72 408.52 609.97 417.09 607.99 425.66 606.43 433.92 605.31 441.86 604.99 449.77 605.05 457.33 605.44 464.51 606.5 471.64 607.72 478.35 609.02 484.61 611.53 493.64 615.69 509.09 616.8 515.48 615.73 526.09 606.14 539.31 600.07 543.65 595.47 547.07 590.24 550.75 584.44 554.8 578.38 559.6 571.82 564.93 564.83 570.85 557.65 577.61 550.11 584.97 542.28 592.89 534.34 601.46 526.17 610.38 517.82 619.47 509.41 628.72 500.88 637.73 492.26 646.21 483.63 654.14 474.94 661.05 466.23 666.63 457.52 671.03 448.8 673.73 440.1 674.59 431.41 673.97 422.73 671.48 414.1 667.18 405.46 661.72 397.06 655.02 388.9 647.41 380.72 639.53 372.77 631.38 365.04 623.29 357.28 615.78 349.72 608.81 342.38 602.54 334.98 597.37 327.77 593.06 320.74 589.62 313.64 587.32 306.71 585.75 299.94 584.76 293.08 584.62 286.36 584.74 279.79 584.96 273.11 585.56 266.57 585.92 260.16 585.9 253.65 585.83 247.26 585.15 241.02 583.77 234.68 582.08 228.49 579.6 222.48 576.32 216.39 572.65 210.49 568.19 204.82 563.01 199.12 557.47 193.67 551.29 188.51 544.56 183.39 537.55 178.59 530.1 174.18 522.3 169.85 514.32 165.95 506.08 162.5 497.66 159.21 489.15 156.41 480.53 154.15 471.85 152.09 463.14 150.59 454.41 149.69 445.7 148.99 437 148.9 428.33 149.43 419.73 150.17 411.13 151.48 402.79 153.34 394.71 155.34 386.62 157.83 378.77 160.77 371.15 163.78 363.49 167.19 356.02 170.96 348.72 174.71 341.34 178.78 334.08 183.12 326.94 187.38 319.66 191.88 312.43 196.58 305.24 201.15 297.86 205.91 290.47 210.82 283.05 215.58 275.43 220.5 267.76 225.56 260.05 230.46 252.16 235.51 244.25 240.7 236.36 245.75 228.38 250.96 220.49 256.33 212.79 261.58 205.15 267.01 197.81 272.64 190.89 278.16 184.24 283.9 178.16 289.84 172.74 295.72 167.8 301.82 163.65 308.16 160.37 314.45 157.67 320.98 155.88 327.76 155.01 334.5 154.65 341.5 155.11 348.74 156.36 355.97 157.84 363.45 159.88 371.19 162.37 378.92 164.71 386.91 167.21 395.17 169.76" stroke-dasharray="7 9" transform="rotate(16.16, 400, 400)" opacity="0.20"></path><path d="M399.73 181.07C407.69 183.05 415.74 184.85 423.85 186.42 431.97 187.35 440.17 188.04 448.42 188.52 456.69 188.44 465.02 188.28 473.38 188.1 481.77 187.6 490.19 187.28 498.61 187.22 507.05 187.12 515.47 187.47 523.83 188.34 532.17 189.4 540.42 191.09 548.53 193.43 556.55 196.12 564.37 199.5 571.91 203.54 579.3 207.96 586.33 213.02 592.93 218.66 599.27 224.63 605.09 231.11 610.31 238.02 615.18 245.18 619.38 252.69 622.84 260.47 625.88 268.41 628.15 276.56 629.6 284.85 630.63 293.22 630.87 301.69 630.32 310.2 629.45 318.75 627.88 327.32 625.68 335.87 623.34 344.43 620.53 352.96 617.32 361.43 614.27 369.91 611.03 378.33 607.71 386.66 604.83 394.99 602.07 403.23 599.51 411.34 597.63 419.45 596.11 427.23 594.95 434.65 594.52 442.06 594.41 449.1 594.59 455.74 595.83 465.45 599.36 482.64 601.13 490.07 603.55 502.89 601.91 518.76 599 523.39 595.03 528.45 583.5 539.88 576.08 546.76 570.72 552.16 564.86 558.04 558.56 564.43 552.09 571.52 545.25 579.1 538.09 587.1 530.82 595.58 523.29 604.27 515.55 612.99 507.75 621.74 499.79 630.15 491.7 637.96 483.6 645.21 475.4 651.43 467.14 656.39 458.89 660.24 450.59 662.53 442.28 663.12 433.97 662.39 425.66 659.96 417.35 655.87 409.05 650.75 400.95 644.47 393.05 637.34 385.14 629.92 377.43 622.19 369.91 614.44 362.37 607.15 355.01 600.26 347.83 593.94 340.61 588.56 333.55 583.91 326.65 580.01 319.7 577.15 312.88 574.96 306.22 573.34 299.48 572.54 292.86 572.07 286.38 571.77 279.82 571.92 273.37 571.97 267.06 571.78 260.66 571.67 254.38 571.1 248.25 569.98 242.04 568.69 235.98 566.73 230.1 564.09 224.17 561.16 218.42 557.52 212.91 553.22 207.38 548.61 202.11 543.38 197.13 537.6 192.19 531.58 187.57 525.08 183.33 518.17 179.19 511.11 175.45 503.72 172.16 496.09 169.03 488.36 166.37 480.45 164.23 472.4 162.28 464.32 160.88 456.16 160.04 447.94 159.41 439.72 159.36 431.47 159.9 423.22 160.64 414.97 161.94 406.91 163.75 399.04 165.71 391.16 168.14 383.46 171.01 375.92 173.95 368.34 177.27 360.9 180.94 353.58 184.62 346.19 188.6 338.87 192.84 331.63 197.02 324.26 201.43 316.92 206.05 309.59 210.56 302.11 215.24 294.62 220.09 287.1 224.8 279.43 229.66 271.73 234.65 264.02 239.5 256.2 244.5 248.4 249.63 240.68 254.62 232.94 259.76 225.36 265.05 218.01 270.22 210.79 275.57 203.92 281.08 197.5 286.49 191.39 292.09 185.87 297.89 181.01 303.62 176.62 309.55 173 315.7 170.21 321.79 167.95 328.12 166.53 334.67 165.97 341.18 165.85 347.94 166.49 354.93 167.84 361.9 169.37 369.12 171.41 376.58 173.86 384.04 176.14 391.75 178.58 399.72 181.07" stroke-dasharray="2 7" transform="rotate(20.200000000000003, 400, 400)" opacity="0.24"></path><path d="M404.28 192.37C411.95 194.32 419.7 196.11 427.49 197.7 435.3 198.69 443.17 199.47 451.08 200.06 459 200.11 466.96 200.07 474.94 200 482.93 199.6 490.93 199.32 498.9 199.26 506.87 199.11 514.79 199.33 522.62 199.98 530.42 200.76 538.09 202.09 545.57 203.99 552.97 206.17 560.12 208.97 566.98 212.38 573.67 216.13 580 220.47 585.89 225.37 591.53 230.58 596.66 236.3 601.21 242.46 605.45 248.86 609.04 255.65 611.96 262.73 614.51 270 616.35 277.5 617.45 285.18 618.2 292.97 618.24 300.89 617.58 308.88 616.67 316.93 615.15 325.03 613.06 333.12 610.89 341.24 608.29 349.35 605.36 357.39 602.58 365.46 599.62 373.45 596.59 381.35 593.96 389.25 591.42 397.05 589.04 404.69 587.27 412.34 585.78 419.65 584.61 426.61 584.08 433.55 583.82 440.13 583.8 446.32 584.66 455.38 587.34 471.49 588.73 478.54 590.75 491.1 589.4 507.72 586.93 512.99 583.55 518.81 573.56 531.98 567.04 539.72 562.31 545.6 557.1 551.9 551.47 558.63 545.67 565.92 539.5 573.57 532.99 581.51 526.38 589.79 519.49 598.15 512.36 606.42 505.17 614.62 497.78 622.4 490.25 629.54 482.68 636.1 475 641.66 467.22 646.03 459.44 649.37 451.58 651.27 443.68 651.63 435.78 650.81 427.85 648.44 419.89 644.57 411.94 639.77 404.15 633.9 396.53 627.23 388.91 620.27 381.45 612.97 374.16 605.58 366.85 598.55 359.69 591.8 352.69 585.49 345.65 579.97 338.76 575.06 332.01 570.8 325.21 567.45 318.53 564.71 311.99 562.5 305.38 561.08 298.89 560 292.53 559.16 286.09 558.81 279.77 558.46 273.57 557.98 267.31 557.69 261.17 557.07 255.17 556.04 249.12 554.96 243.22 553.34 237.49 551.15 231.74 548.77 226.17 545.77 220.83 542.18 215.5 538.35 210.42 533.94 205.63 529 200.9 523.85 196.48 518.22 192.43 512.16 188.48 505.96 184.92 499.4 181.8 492.53 178.83 485.58 176.32 478.38 174.31 470.99 172.48 463.56 171.17 455.97 170.4 448.27 169.83 440.56 169.82 432.75 170.37 424.88 171.11 417 172.38 409.24 174.15 401.6 176.06 393.95 178.42 386.42 181.2 378.99 184.06 371.53 187.29 364.15 190.86 356.84 194.44 349.47 198.31 342.15 202.45 334.85 206.54 327.47 210.86 320.09 215.37 312.71 219.8 305.22 224.41 297.71 229.17 290.19 233.81 282.58 238.6 274.96 243.53 267.38 248.32 259.74 253.26 252.17 258.32 244.73 263.25 237.33 268.33 230.14 273.54 223.24 278.64 216.51 283.89 210.16 289.3 204.3 294.62 198.76 300.11 193.81 305.77 189.52 311.36 185.68 317.14 182.58 323.12 180.25 329.04 178.41 335.17 177.35 341.52 177.07 347.82 177.17 354.35 177.96 361.1 179.38 367.83 180.95 374.79 182.97 381.99 185.36 389.17 187.58 396.6 189.95 404.27 192.37" stroke-dasharray="8 9" transform="rotate(24.24, 400, 400)" opacity="0.28"></path><path d="M408.66 203.68C416.03 205.59 423.45 207.36 430.91 208.96 438.37 210.01 445.89 210.88 453.42 211.56 460.96 211.75 468.52 211.84 476.07 211.89 483.63 211.6 491.16 211.4 498.65 211.37 506.11 211.2 513.5 211.34 520.77 211.83 527.99 212.4 535.05 213.43 541.9 214.96 548.65 216.7 555.15 218.99 561.33 221.84 567.34 224.95 572.99 228.63 578.19 232.83 583.17 237.3 587.66 242.27 591.59 247.68 595.24 253.32 598.3 259.35 600.73 265.7 602.85 272.23 604.32 279.03 605.14 286.04 605.66 293.17 605.55 300.46 604.83 307.85 603.91 315.32 602.45 322.86 600.49 330.42 598.49 338.02 596.12 345.62 593.45 353.18 590.93 360.76 588.26 368.29 585.5 375.71 583.11 383.15 580.78 390.49 578.57 397.67 576.9 404.86 575.47 411.73 574.28 418.26 573.47 427.87 573.6 445.34 574.27 453.19 575.48 460.7 577.62 474.16 578.21 480.25 578.49 486.27 576.8 497.95 574.67 503.91 571.77 510.47 563.1 525.18 557.37 533.61 553.22 539.85 548.61 546.43 543.59 553.34 538.42 560.69 532.87 568.29 526.99 576.05 521.01 584.03 514.74 591.97 508.21 599.73 501.62 607.33 494.81 614.46 487.83 620.93 480.82 626.82 473.65 631.75 466.37 635.55 459.07 638.42 451.67 639.97 444.2 640.11 436.73 639.22 429.19 636.92 421.6 633.26 414.02 628.78 406.56 623.31 399.25 617.1 391.93 610.59 384.74 603.72 377.69 596.71 370.63 589.97 363.69 583.4 356.89 577.17 350.06 571.59 343.35 566.5 336.76 561.95 330.14 558.19 323.62 554.97 317.22 552.24 310.78 550.24 304.43 548.58 298.21 547.19 291.93 546.31 285.76 545.5 279.71 544.66 273.61 544.07 267.63 543.28 261.8 542.19 255.93 541.15 250.21 539.69 244.67 537.77 239.11 535.76 233.75 533.22 228.61 530.17 223.5 526.95 218.63 523.21 214.05 518.97 209.53 514.57 205.33 509.7 201.48 504.4 197.73 498.97 194.37 493.17 191.42 487.03 188.62 480.81 186.26 474.31 184.38 467.55 182.67 460.76 181.46 453.76 180.76 446.58 180.26 439.39 180.28 432.05 180.83 424.57 181.57 417.09 182.82 409.65 184.53 402.28 186.39 394.9 188.68 387.57 191.36 380.29 194.13 372.99 197.26 365.72 200.71 358.49 204.18 351.21 207.94 343.94 211.95 336.68 215.93 329.36 220.14 322.03 224.55 314.69 228.88 307.29 233.39 299.88 238.06 292.49 242.62 285.04 247.33 277.63 252.18 270.28 256.91 262.94 261.77 255.71 266.75 248.65 271.62 241.69 276.62 234.98 281.75 228.58 286.78 222.4 291.95 216.63 297.26 211.36 302.48 206.41 307.86 202.04 313.39 198.32 318.86 195.01 324.49 192.4 330.31 190.52 336.07 189.07 342.02 188.33 348.17 188.3 354.28 188.59 360.59 189.5 367.1 190.98 373.6 192.57 380.31 194.56 387.23 196.89 394.15 199.04 401.29 201.33 408.65 203.68" stroke-dasharray="2 1" transform="rotate(28.28, 400, 400)" opacity="0.32"></path><path d="M412.68 214.98C419.72 216.85 426.81 218.6 433.91 220.2 441.01 221.31 448.14 222.25 455.27 223.03 462.4 223.34 469.53 223.57 476.63 223.74 483.72 223.58 490.76 223.48 497.72 223.5 504.66 223.36 511.49 223.46 518.17 223.86 524.8 224.27 531.25 225.07 537.47 226.3 543.58 227.67 549.43 229.53 554.95 231.88 562.81 235.97 576.17 246.98 581.5 253.78 584.62 258.67 587.21 263.95 589.21 269.55 590.96 275.34 592.13 281.4 592.7 287.7 593.05 294.12 592.84 300.73 592.08 307.47 591.18 314.29 589.8 321.21 587.99 328.18 586.17 335.2 584.02 342.25 581.6 349.27 579.34 356.33 576.93 363.34 574.44 370.28 572.28 377.23 570.15 384.1 568.11 390.84 566.54 397.58 565.15 404.03 563.97 410.18 563.04 419.25 562.64 435.87 562.97 443.44 563.79 450.76 565.26 464.25 565.61 470.55 565.76 476.91 564.18 489.62 562.29 496.24 560.77 500.99 558.79 505.9 556.34 511.02 553.74 516.53 550.68 522.3 547.18 528.34 543.53 534.79 539.46 541.51 534.99 548.47 530.39 555.74 525.43 563.16 520.14 570.64 514.75 578.22 509.07 585.68 503.12 592.87 497.12 599.85 490.88 606.32 484.44 612.12 477.97 617.36 471.33 621.68 464.54 624.95 457.74 627.39 450.81 628.62 443.79 628.58 436.75 627.62 429.63 625.4 422.43 621.96 415.22 617.78 408.12 612.71 401.12 606.93 394.12 600.87 387.23 594.44 380.44 587.83 373.65 581.4 366.96 575.06 360.38 568.96 353.77 563.38 347.27 558.19 340.88 553.44 334.45 549.37 328.12 545.75 321.9 542.57 315.64 540.04 309.47 537.86 303.42 535.94 297.32 534.52 291.33 533.23 285.46 531.98 276.66 530.48 259.72 526.82 251.63 524.29 243.73 521.34 229.06 513.14 222.39 507.83 218.11 504.03 214.13 499.79 210.49 495.13 206.96 490.38 203.8 485.25 201.03 479.76 198.41 474.22 196.21 468.35 194.46 462.2 192.88 456.02 191.76 449.59 191.14 442.93 190.69 436.26 190.74 429.38 191.3 422.32 192.03 415.25 193.24 408.17 194.9 401.1 196.69 394.02 198.9 386.94 201.48 379.87 204.15 372.79 207.16 365.7 210.48 358.61 213.83 351.5 217.46 344.37 221.34 337.25 225.2 330.08 229.29 322.9 233.56 315.73 237.79 308.53 242.19 301.33 246.74 294.18 251.21 287.01 255.82 279.91 260.56 272.92 265.21 265.97 269.99 259.18 274.88 252.6 279.67 246.15 284.59 239.98 289.63 234.16 294.58 228.57 299.65 223.4 304.86 218.73 309.98 214.38 315.25 210.6 320.65 207.42 328.75 203.56 345.65 199.69 354.48 199.66 360.4 200.12 366.5 201.12 372.78 202.64 379.04 204.23 385.5 206.18 392.15 208.43 398.79 210.51 405.63 212.72 412.67 214.98" stroke-dasharray="6 3" transform="rotate(32.32, 400, 400)" opacity="0.35"></path><path d="M416.18 226.29C422.88 228.1 429.61 229.83 436.33 231.43 443.05 232.57 449.77 233.58 456.48 234.46 463.18 234.89 469.85 235.25 476.46 235.55 483.06 235.53 489.59 235.54 496.01 235.64 502.4 235.56 508.67 235.67 514.76 236.02 523.71 236.65 540.33 239.81 547.83 242.48 554.77 245.84 566.4 255.04 570.96 260.84 574.7 267.29 579.32 282.16 580.17 290.4 580.39 296.1 580.11 302 579.35 308.07 578.49 314.21 577.22 320.48 575.56 326.83 573.93 333.23 572 339.69 569.82 346.15 567.81 352.64 565.65 359.13 563.41 365.57 561.46 372.02 559.53 378.42 557.64 384.72 556.17 391.03 554.84 397.09 553.67 402.91 552.64 411.5 551.78 427.45 551.79 434.85 552.25 442.09 553.08 455.77 553.18 462.36 553.17 469.08 551.58 482.77 549.87 489.96 548.52 495.07 546.76 500.34 544.6 505.79 542.32 511.57 539.63 517.57 536.54 523.79 533.33 530.31 529.72 537.03 525.75 543.89 521.67 550.96 517.24 558.09 512.49 565.19 507.66 572.3 502.53 579.21 497.14 585.8 491.68 592.14 485.99 597.95 480.09 603.1 474.15 607.71 468.03 611.47 461.74 614.25 455.43 616.28 448.98 617.22 442.4 617.02 435.82 616.01 429.12 613.88 422.32 610.65 415.52 606.78 408.78 602.08 402.13 596.73 395.47 591.12 388.89 585.12 382.39 578.91 375.89 572.83 369.46 566.76 363.13 560.84 356.78 555.34 350.52 550.12 344.34 545.25 338.15 540.95 332.04 537.02 326.02 533.47 319.97 530.49 314.02 527.83 308.17 525.43 302.29 523.5 296.51 521.73 290.85 520.04 282.39 517.96 266.14 513.6 258.41 510.99 250.89 508.15 236.97 500.68 230.67 495.95 224.76 490.72 214.69 478.23 210.63 471.03 207.17 463.42 202.58 446.61 201.51 437.51 201.13 431.34 201.21 424.93 201.77 418.3 202.49 411.67 203.66 404.98 205.26 398.24 206.98 391.51 209.09 384.73 211.56 377.93 214.12 371.13 217 364.29 220.19 357.44 223.41 350.57 226.9 343.68 230.63 336.79 234.35 329.88 238.3 322.97 242.43 316.07 246.52 309.17 250.79 302.3 255.21 295.5 259.56 288.73 264.06 282.05 268.69 275.5 273.24 269.04 277.91 262.77 282.69 256.74 287.39 250.86 292.21 245.29 297.14 240.07 302 235.1 306.97 230.55 312.06 226.49 319.65 221.12 335.38 213.7 343.55 211.75 351.8 210.87 369.01 212.28 377.99 214.36 384.02 215.93 390.21 217.83 396.58 219.99 402.93 221.99 409.47 224.11 416.17 226.29" stroke-dasharray="8 7" transform="rotate(36.36, 400, 400)" opacity="0.39"></path><path d="M419.01 237.59C425.36 239.35 431.7 241.04 438.03 242.63 444.35 243.81 450.65 244.88 456.91 245.83 469.4 246.56 481.66 247.12 493.45 247.76 505.1 247.61 516.11 248.24 526.19 249.91 535.88 251.72 544.4 255.03 551.44 259.85 557.85 265.25 562.57 272.2 565.44 280.48 567.64 289.29 568.03 299.21 566.66 309.91 565.03 320.91 562.09 332.45 558.11 344.22 556.33 350.14 554.41 356.09 552.4 362.04 550.66 367.99 548.9 373.92 547.17 379.82 545.17 388.56 542.27 405.09 541.35 412.88 541.21 423.18 541.14 432.85 540.91 441.98 541.42 451.43 541.21 460.7 540.05 469.98 538.96 480.02 536.53 490.51 532.71 501.56 528.59 513.64 522.98 526.37 515.98 539.49 508.65 553.09 500.04 566.36 490.33 578.5 480.42 589.53 469.58 598.13 457.99 603.43 452.17 605.09 446.19 605.78 440.07 605.44 433.94 604.41 427.67 602.37 421.29 599.35 414.9 595.76 408.55 591.44 402.26 586.51 395.96 581.32 389.71 575.76 383.53 569.97 371.15 558.68 359 547.58 347.17 537.34 335.29 528.95 323.69 521.77 312.48 515.69 301.21 511.32 290.34 507.42 280.02 503.54 269.72 500.44 260.05 496.63 251.21 491.83 242.57 487.08 234.9 481.01 228.44 473.57 222.41 465.98 217.73 457.04 214.63 446.87 212.84 439.05 211.62 422 212.23 412.84 212.94 406.65 214.07 400.36 215.6 394.01 217.24 387.66 219.25 381.24 221.61 374.77 226.54 361.85 232.69 348.74 239.81 335.61 246.95 322.52 254.9 309.46 263.47 296.71 271.85 284.19 280.79 272.23 290.16 261.21 299.26 250.87 308.83 241.89 318.8 234.67 328.52 228.57 338.74 224.52 349.41 222.71 359.93 221.95 371.01 223.15 382.61 226.12 388.39 227.67 394.31 229.5 400.38 231.57 406.44 233.48 412.65 235.5 419 237.59" stroke-dasharray="9 3" transform="rotate(40.400000000000006, 400, 400)" opacity="0.43"></path><path d="M421.05 248.9C433.01 251.96 444.86 254.76 456.46 257.16 468.03 258.14 479.27 258.97 489.98 259.84 500.55 259.89 510.42 260.56 519.35 262.07 527.93 263.54 535.37 266.27 541.43 270.32 546.95 274.76 550.95 280.6 553.28 287.67 555.1 295.17 555.33 303.76 554.03 313.17 552.58 322.85 549.98 333.15 546.46 343.8 543.5 354.55 540.17 365.51 536.71 376.5 534.49 387.49 532.55 397.97 530.9 407.9 530.45 417.9 530.02 427.51 529.43 436.81 529.54 446.42 529.04 456.02 527.73 465.74 526.57 476.1 524.27 486.9 520.77 498.16 517.08 510.17 512.07 522.6 505.8 535.14 499.28 547.87 491.56 560.03 482.8 570.93 473.87 580.68 464 588.11 453.36 592.5 442.67 594.58 431.3 593.12 419.38 588.04 407.46 581.02 395.59 571.68 383.9 560.99 372.21 550.39 360.67 539.76 349.41 529.68 338.12 521.08 327.07 513.43 316.4 506.7 305.71 501.5 295.4 496.79 285.64 492.24 275.93 488.53 266.85 484.37 258.57 479.48 250.51 474.81 243.38 469.06 237.41 462.17 231.84 455.22 227.55 447.05 224.73 437.73 222.46 428.35 221.74 417.86 222.7 406.36 224.21 394.86 227.25 382.94 231.62 370.8 236.3 358.68 242.13 346.38 248.89 334.08 255.71 321.88 263.31 309.79 271.53 298.08 279.61 286.69 288.24 275.93 297.29 266.17 306.13 257.1 315.41 249.37 325.05 243.32 334.5 238.27 344.39 235.08 354.67 233.91 364.83 233.58 375.46 234.99 386.53 237.95 397.55 240.89 409.08 244.66 421.04 248.89" stroke-dasharray="3 1" transform="rotate(44.44, 400, 400)" opacity="0.47"></path><path d="M422.22 260.2C433.41 263.16 444.41 265.95 455.08 268.43 465.72 269.64 475.95 270.73 485.6 271.83 495.11 272.12 503.9 272.9 511.76 274.35 519.32 275.63 525.78 277.95 530.97 281.39 535.72 285.06 539.1 289.96 541 295.99 542.52 302.34 542.66 309.72 541.47 317.96 540.22 326.39 537.97 335.51 534.89 345.12 532.32 354.78 529.38 364.81 526.24 375.04 524.17 385.28 522.25 395.23 520.51 404.86 519.8 414.57 519.06 424.09 518.16 433.48 517.89 443.15 517.11 452.94 515.64 462.9 514.37 473.38 512.14 484.23 508.86 495.4 505.5 507.08 500.97 518.97 495.33 530.73 489.51 542.44 482.59 553.43 474.68 563.06 466.64 571.58 457.69 577.9 447.97 581.47 438.19 583.04 427.72 581.48 416.67 576.74 405.61 570.32 394.53 561.79 383.56 551.96 372.59 542.1 361.73 532.01 351.1 522.23 340.46 513.6 330.05 505.65 319.97 498.47 309.92 492.58 300.24 487.16 291.08 481.99 282.02 477.63 273.56 473.03 265.88 467.94 258.42 463.15 251.86 457.53 246.38 450.99 241.28 444.46 237.38 436.9 234.85 428.3 232.82 419.66 232.21 410 233.17 399.38 234.62 388.76 237.49 377.72 241.61 366.46 246.02 355.26 251.51 343.88 257.89 332.57 264.34 321.4 271.56 310.41 279.38 299.88 287.11 289.7 295.38 280.22 304.06 271.75 312.58 263.93 321.52 257.41 330.79 252.46 339.92 248.37 349.44 245.96 359.28 245.34 369.03 245.37 379.19 246.91 389.69 249.82 400.15 252.63 411.02 256.19 422.22 260.2" stroke-dasharray="6 6" transform="rotate(48.48, 400, 400)" opacity="0.51"></path><path d="M422.47 271.51C432.87 274.36 443 277.11 452.74 279.65 462.44 281.06 471.69 282.39 480.32 283.73 488.83 284.29 496.6 285.22 503.47 286.7 512.89 288.93 525.64 298.12 528.65 305.36 529.95 310.72 530.05 317.07 529 324.24 527.96 331.57 526.04 339.62 523.37 348.24 521.18 356.9 518.6 366.05 515.77 375.56 513.85 385.07 511.97 394.5 510.17 403.8 509.26 413.18 508.26 422.54 507.08 431.91 506.49 441.51 505.43 451.29 503.8 461.26 502.4 471.61 500.18 482.26 497.07 493.08 493.95 504.19 489.82 515.33 484.7 526.14 479.47 536.74 473.24 546.49 466.11 554.89 458.87 562.21 450.78 567.51 441.93 570.34 433.04 571.46 423.45 569.84 413.26 565.43 403.08 559.6 392.81 551.86 382.6 542.89 372.41 533.79 362.28 524.32 352.33 514.96 342.41 506.45 332.68 498.4 323.27 490.93 313.91 484.54 304.91 478.55 296.41 472.84 288.03 467.88 280.23 462.82 273.17 457.45 266.34 452.44 260.35 446.82 255.37 440.48 250.75 434.22 247.24 427.11 244.99 419.11 243.18 411.11 242.69 402.21 243.63 392.45 245.02 382.69 247.72 372.57 251.57 362.28 255.68 352.04 260.82 341.71 266.79 331.49 272.86 321.44 279.67 311.65 287.04 302.37 294.38 293.44 302.24 285.24 310.49 278.05 318.63 271.45 327.18 266.07 336.02 262.13 344.76 258.89 353.85 257.15 363.21 256.98 372.5 257.29 382.13 258.92 392.02 261.73 401.89 264.4 412.07 267.73 422.47 271.51" stroke-dasharray="1 4" transform="rotate(52.52, 400, 400)" opacity="0.54"></path><path d="M421.79 282.81C431.38 285.54 440.64 288.24 449.46 290.79 458.24 292.38 466.54 293.92 474.2 295.48 481.76 296.32 488.59 297.45 494.57 299.01 502.77 301.2 513.72 309.33 516.27 315.59 517.41 320.17 517.52 325.64 516.63 331.92 515.8 338.28 514.2 345.38 511.93 353.11 510.07 360.86 507.83 369.19 505.3 378 503.54 386.81 501.72 395.71 499.89 404.63 498.81 413.61 497.6 422.71 496.21 431.89 495.33 441.26 494.04 450.83 492.26 460.56 490.71 470.55 488.48 480.74 485.49 490.96 482.54 501.31 478.72 511.51 474.05 521.25 469.31 530.67 463.7 539.19 457.26 546.38 450.74 552.58 443.44 556.94 435.42 559.11 427.36 559.84 418.63 558.2 409.31 554.13 400 548.86 390.57 541.88 381.15 533.76 371.76 525.45 362.4 516.66 353.21 507.82 344.04 499.58 335.05 491.61 326.37 484.05 317.75 477.34 309.47 470.96 301.67 464.83 294.01 459.38 286.89 453.9 280.47 448.27 274.28 442.99 268.87 437.28 264.4 431.06 260.25 424.96 257.12 418.19 255.14 410.71 253.56 403.25 253.18 395.04 254.1 386.11 255.42 377.19 257.93 368 261.5 358.72 265.32 349.5 270.08 340.26 275.62 331.21 281.28 322.32 287.63 313.75 294.53 305.75 301.42 298.07 308.82 291.13 316.59 285.15 324.3 279.69 332.38 275.34 340.74 272.3 349.03 269.81 357.62 268.64 366.45 268.82 375.23 269.35 384.27 271 393.52 273.68 402.75 276.18 412.2 279.28 421.79 282.81" stroke-dasharray="6 6" transform="rotate(56.56, 400, 400)" opacity="0.58"></path><path d="M420.21 294.12C428.97 296.7 437.35 299.32 445.28 301.87 453.17 303.6 460.55 305.32 467.31 307.08 476.97 308.85 492.27 313.49 497.59 316.96 501.71 320.96 505.02 332.86 504.38 340.77 503.76 346.33 502.46 352.61 500.55 359.55 499.01 366.49 497.08 374.05 494.84 382.18 493.22 390.31 491.48 398.64 489.67 407.1 488.47 415.6 487.1 424.3 485.53 433.12 484.42 442.07 482.93 451.23 481.02 460.49 479.34 469.9 477.08 479.4 474.18 488.82 471.35 498.24 467.79 507.39 463.5 515.98 459.18 524.19 454.09 531.49 448.27 537.52 442.41 542.68 435.83 546.2 428.59 547.79 421.33 548.19 413.43 546.55 404.98 542.82 396.53 538.1 387.94 531.86 379.36 524.57 370.79 517.05 362.25 509 353.84 500.77 345.47 492.94 337.27 485.22 329.35 477.74 321.5 470.92 313.98 464.33 306.92 457.96 299.99 452.14 293.58 446.35 287.82 440.51 282.26 434.99 277.44 429.2 273.47 423.06 269.79 417.06 267.03 410.56 265.32 403.55 263.96 396.56 263.68 388.99 264.57 380.88 265.8 372.76 268.13 364.5 271.4 356.25 274.91 348.04 279.29 339.91 284.39 332.04 289.6 324.31 295.47 316.97 301.85 310.2 308.26 303.72 315.14 297.96 322.38 293.11 329.6 288.67 337.16 285.25 344.97 282.98 352.75 281.13 360.79 280.42 369.03 280.86 377.23 281.52 385.65 283.15 394.21 285.66 402.75 287.98 411.46 290.84 420.21 294.12" stroke-dasharray="8 4" transform="rotate(60.599999999999994, 400, 400)" opacity="0.62"></path><path d="M417.8 305.42C425.71 307.85 433.24 310.37 440.29 312.88 447.32 314.71 453.84 316.57 459.77 318.49 468.23 320.61 481.49 325.66 486.07 329.06 489.67 332.81 492.69 343.48 492.26 350.51 491.83 355.42 490.81 361.01 489.24 367.24 487.98 373.47 486.34 380.32 484.37 387.78 482.9 395.23 481.26 402.95 479.49 410.85 478.21 418.78 476.74 426.94 475.06 435.23 473.76 443.6 472.12 452.13 470.12 460.71 468.33 469.34 466.04 477.98 463.22 486.44 460.49 494.8 457.14 502.82 453.18 510.22 449.21 517.24 444.59 523.36 439.34 528.32 434.06 532.52 428.15 535.28 421.65 536.38 415.13 536.51 408.04 534.91 400.44 531.52 392.83 527.32 385.1 521.8 377.36 515.31 369.64 508.6 361.93 501.32 354.35 493.77 346.81 486.47 339.42 479.14 332.3 471.93 325.26 465.19 318.52 458.58 312.22 452.15 306.04 446.15 300.33 440.2 295.23 434.25 290.32 428.58 286.07 422.75 282.6 416.72 279.38 410.81 276.99 404.58 275.53 398 274.37 391.44 274.18 384.48 275.03 377.15 276.19 369.81 278.31 362.46 281.29 355.21 284.48 348 288.46 340.96 293.09 334.23 297.85 327.63 303.2 321.44 309.04 315.84 314.92 310.47 321.25 305.79 327.91 301.94 334.57 298.4 341.55 295.77 348.77 294.14 355.96 292.81 363.4 292.44 370.98 293.06 378.56 293.8 386.3 295.36 394.13 297.68 401.96 299.8 409.88 302.41 417.8 305.42" stroke-dasharray="9 6" transform="rotate(64.64, 400, 400)" opacity="0.66"></path><path d="M414.65 316.73C421.72 318.99 428.4 321.38 434.62 323.82 443.67 326.67 459.05 332.11 465.17 334.95 474.09 341.11 480.49 354.45 480.28 360.78 479.64 367.67 476.31 384.46 473.9 394.33 472.59 401.11 471.05 408.17 469.35 415.41 468.05 422.68 466.52 430.16 464.78 437.76 463.35 445.39 461.61 453.13 459.55 460.86 457.68 468.57 455.39 476.21 452.66 483.6 450.02 490.85 446.86 497.69 443.19 503.92 439.55 509.77 435.34 514.79 430.61 518.76 423.22 523.15 405.8 524.03 395.88 520.21 389.11 516.52 382.23 511.68 375.34 505.99 368.47 500.07 361.61 493.59 354.87 486.78 348.18 480.11 341.63 473.31 335.33 466.52 329.1 460.04 323.16 453.62 317.62 447.31 312.19 441.32 307.2 435.37 302.76 429.46 298.48 423.77 294.79 418 291.8 412.14 289.02 406.38 286.98 400.43 285.77 394.29 284.8 388.17 284.69 381.81 285.5 375.23 286.56 368.64 288.48 362.16 291.16 355.88 294.02 349.62 297.59 343.6 301.75 337.95 306.02 332.39 310.85 327.28 316.11 322.72 321.43 318.34 327.16 314.61 333.2 311.62 339.26 308.85 345.61 306.87 352.17 305.75 358.74 304.81 365.51 304.7 372.4 305.41 379.29 306.17 386.31 307.63 393.38 309.73 400.45 311.63 407.57 313.99 414.65 316.73" stroke-dasharray="1 0" transform="rotate(68.68, 400, 400)" opacity="0.70"></path><path d="M410.89 328.03C423.35 331.74 434.27 336.06 443.22 340.66 452.02 343.66 458.7 347.58 462.95 352.62 467.06 356.94 468.89 363.1 468.44 371.16 468.39 379.07 466.68 389.16 463.44 401.33 461.43 413.51 458.44 426.73 454.69 440.26 451.93 453.8 447.9 467.46 442.55 480.13 437.54 492.14 430.75 502.2 422.24 508.85 413.74 513.5 403.39 513.75 391.49 508.91 379.58 502.06 367.35 491.78 355.55 479.77 343.89 467.94 332.85 455.51 323.19 443.31 313.92 431.99 306.31 420.61 301.09 409.33 296.56 398.39 294.66 386.96 295.97 375.26 298.08 363.56 303.13 352.68 310.37 343.25 318.02 334.08 327.58 326.81 338.31 322.09 349.15 317.93 361.05 316.47 373.35 317.88 385.69 319.28 398.42 322.78 410.89 328.03" stroke-dasharray="7 1" transform="rotate(72.72, 400, 400)" opacity="0.73"></path><path d="M406.68 339.34C417.48 342.74 426.86 346.87 434.51 351.38 442.06 354.64 447.8 358.73 451.5 363.73 455.15 368.09 456.92 373.91 456.76 381.27 456.96 388.46 455.68 397.46 452.97 408.23 451.18 418.99 448.37 430.57 444.78 442.28 441.95 453.92 437.98 465.44 432.92 475.85 428.16 485.65 421.95 493.6 414.37 498.59 406.81 502.05 397.76 501.9 387.45 497.6 377.14 491.78 366.61 483.04 356.51 472.69 346.53 462.31 337.14 451.13 328.98 439.97 321.15 429.35 314.78 418.65 310.47 408.16 306.71 397.93 305.2 387.52 306.43 377.25 308.31 366.98 312.69 357.79 318.97 350.09 325.61 342.56 333.92 336.8 343.28 333.26 352.77 330.04 363.2 329.07 373.96 330.45 384.77 331.69 395.88 334.72 406.68 339.34" stroke-dasharray="10 9" transform="rotate(76.76, 400, 400)" opacity="0.77"></path><path d="M402.2 350.64C411.36 353.7 419.28 357.54 425.73 361.83 434.57 367.26 444.31 381.27 445.25 390.7 445.63 397.21 444.73 405.16 442.5 414.47 440.95 423.78 438.38 433.63 435.05 443.39 432.27 453.07 428.49 462.42 423.81 470.66 419.37 478.37 413.77 484.42 407.11 488 400.49 490.46 392.69 490.03 383.93 486.3 375.17 481.46 366.31 474.19 357.87 465.5 349.53 456.66 341.75 446.96 335.05 437.11 328.6 427.55 323.41 417.85 319.96 408.41 316.92 399.14 315.77 389.89 316.9 381.04 318.52 372.18 322.25 364.52 327.57 358.31 333.18 352.19 340.23 347.67 348.18 345.02 356.27 342.51 365.17 341.84 374.34 343.09 383.57 344.12 393.03 346.67 402.2 350.64" stroke-dasharray="7 6" transform="rotate(80.80000000000001, 400, 400)" opacity="0.81"></path><path d="M397.62 361.95C405.17 364.62 411.7 368.06 417.03 372 424.39 377.29 432.82 390.61 433.89 399.08 434.4 404.89 433.8 411.76 432.04 419.57 430.72 427.39 428.46 435.45 425.48 443.26 422.88 450.98 419.41 458.25 415.21 464.47 411.19 470.28 406.27 474.68 400.55 477.09 394.88 478.74 388.33 478.14 381.08 475 373.82 471.09 366.59 465.24 359.77 458.17 353.01 450.93 346.77 442.85 341.45 434.52 336.31 426.31 332.22 417.92 329.57 409.77 327.2 401.7 326.36 393.76 327.37 386.32 328.73 378.88 331.79 372.61 336.16 367.67 340.75 362.76 346.54 359.22 353.08 357.22 359.73 355.24 367.07 354.74 374.64 355.76 382.26 356.56 390.07 358.64 397.62 361.95" stroke-dasharray="0 10" transform="rotate(84.84, 400, 400)" opacity="0.85"></path><path d="M393.14 373.25C405.1 377.24 413.89 384.2 418.51 392.67 423.31 400.14 424.53 410.55 421.57 423.13 419.74 435.7 414.47 448.13 407.14 457.23 400.31 465.26 390.54 468.25 379 463.69 367.46 457.24 356.4 445.31 348.23 431.99 340.52 418.76 336.35 404.71 337.83 392.69 340.23 380.67 347.85 372.75 358.03 369.68 368.55 366.46 381.19 367.6 393.14 373.25" stroke-dasharray="3 5" transform="rotate(88.88, 400, 400)" opacity="0.89"></path><path d="M388.95 384.56C397.82 387.78 404.48 393.56 408.17 400.54 411.99 406.98 413.17 415.4 411.1 424.85 409.65 434.3 405.41 443 399.58 448.95 394.03 454.28 386.43 455.95 377.8 452.39 369.17 447.76 361.16 439.13 355.42 429.31 349.93 419.41 347.06 408.74 348.3 399.63 350.07 390.52 355.64 384.58 363.1 382.24 370.78 379.69 380.08 380.37 388.95 384.56" stroke-dasharray="10 2" transform="rotate(92.92, 400, 400)" opacity="0.92"></path><path d="M385.21 395.86C396.93 399.99 403.46 412 400.63 424.61 398.89 437.21 389.01 445.49 377.51 441.08 366.01 434.82 357.2 418.87 358.77 406.6 361.31 394.32 373.48 390 385.21 395.86" stroke-dasharray="5 3" transform="rotate(96.96, 400, 400)" opacity="0.96"></path></g></svg>