<svg xmlns="http://www.w3.org/2000/svg" version="1.1" xmlns:xlink="http://www.w3.org/1999/xlink" xmlns:svgjs="http://svgjs.dev/svgjs" viewBox="0 0 800 800"><defs><linearGradient x1="50%" y1="0%" x2="50%" y2="100%" id="ssscribble-grad"><stop stop-color="hsl(206, 75%, 49%)" stop-opacity="1" offset="0%"></stop><stop stop-color="hsl(331, 90%, 56%)" stop-opacity="1" offset="100%"></stop></linearGradient></defs><g fill="none" stroke-width="1.5" stroke="url(#ssscribble-grad)" stroke-linecap="round"><path d="M1092.38 179.56C1091.96 212.42 1010.48 241.38 881.7 269.18 747.81 300.61 650.34 337.78 611.84 386.81 637.23 447.3 707.84 526.38 795.17 624.11 882.39 726.72 939.39 832.84 957.09 924.63 938.89 982.07 886.81 993.9 814.73 950.47 727.29 867.92 639.31 761.33 559.37 666.43 480.75 625.86 414.5 656.3 360.78 758.72 308.99 901.17 266.86 1033.61 234 1100.57 201.14 1073.96 179.11 964.79 168.92 820.82 160.67 693.77 167.14 626.22 188.81 631.12 211.81 701.5 245.67 802.23 282.46 896.34 303.9 964.93 308.8 983.24 283.93 953.27 223.16 883.72 127.2 789.79 5.76 690.13 -115.77 587.67 -215.85 498.8 -265.33 426.95 -250.92 364.24 -172.16 315.35 -50.95 275.65 65.14 239.49 139.97 206.14 140.38 173.28 60.25 140.42 -63.93 109.61 -184.23 83.79 -265.36 61.52 -275.89 50.62 -217.75 56.38 -109.14 71.28 19.44 106.03 136.43 157.84 246.4 230.24 223.93 238.38 156.48 106.95 108.99 -21.36 77.22 -151.56 63.64 -246.04 57.82 -275.04 67.59 -226.21 88.53 -111.86 112.55 19.42 142.25 121.95 175.11 148.59 207.97 81.65 242.44 -44.12 280.39 -173.89 321.42 -263.65 371.43 -275.4 434.19 -210.76 504.72 -91.77 590.61 44.28 688.75 161.04 784.56 238.7 876.32 265.84 947.85 251.48 984.99 202.77 979.24 143.83 925.84 91.87 843.06 44.77 743.95 19.81 659.42 16.26 625.37 24.17 654.6 46.78 748.41 77.32 881.39 111.49 1012.25 146.7 1092.38 179.56Q1092.38 179.56 1092.38 179.56" opacity="0.34"></path><path d="M1058.38 194.49C1060.85 225 991.96 261.14 877.46 304.1 750.18 349.61 645.01 406.24 584.89 475.89 578.98 550.34 619.51 637.21 687.26 730.84 770.35 816.08 841.42 890.25 887.14 938.06 908.3 950.28 897.56 920.61 862.22 849.87 807.7 761.03 742.57 668.51 676.2 602.38 605.21 592.23 540.93 644.85 486.98 753.73 433.06 888.15 390.17 1007.11 359.66 1066.57 329.15 1044.96 312.45 949.85 308.83 818.32 309.62 649.38 353.05 658.37 367.98 785.56 356.28 870.1 323.22 922.6 262.07 935.92 176.35 913.99 69.11 860.1 -45.75 788.04 -145.28 701.88 -213.17 616.26 -229.62 539.18 -191.87 463.74 -104.07 400.63 11.42 349.82 114.15 300.95 176.85 261.47 174.38 230.95 102.15 200.44 -10.38 180.33 -124.93 171.66 -213.05 164.91 -244.58 172.51 -215.31 195.07 -135.34 219.27 -24.47 254.64 91.23 293.78 195.76 318.81 271.2 328.9 313.74 310.85 324.45 257.55 311.53 168.88 286.93 52.57 250.38 -67.88 218.27 -172.27 196.92 -231.59 176.95 -229.64 170.94 -162.75 178.46 -47.73 187.61 72.01 207.83 160.95 238.34 182.59 268.86 123.14 308.22 10.38 356.61 -112.26 406.64 -209.37 468.16 -244.65 541.01 -212.14 615.24 -123.66 697.6 -3.77 781.18 116.83 852.8 219.35 909.53 285.21 938.81 312.99 936.27 305.18 897.01 274.82 824.25 236.61 740.31 190.02 656.81 153.4 599.2 131.83 592.31 115.04 641.2 113.92 741.1 125.95 867.43 140.54 986.15 163.98 1058.38 194.49Q1058.38 194.49 1058.38 194.49" opacity="0.13"></path><path d="M1024.38 300.83C1029.3 329 972.26 368.31 872.47 418.12 754.79 468.68 647.4 530.48 571.74 601.5 538.62 670.7 548.19 743.47 589.45 811.63 655.33 864.12 724.14 897.03 781.89 900.36 828.44 875.13 850.8 818.29 850.28 737.39 832.85 656.66 799.51 587.5 757.69 552.62 708.35 569.89 658.77 639.38 613.98 750.22 567.81 874.69 529.52 980.23 501.35 1032.57 473.19 1015.5 456.47 933.95 449.53 816.08 441.19 693.7 439.53 598.82 440.07 550.33 433.08 554.52 420.03 601.56 394.04 672.08 351.16 754.88 288.35 824.12 204.9 867.92 110.23 887.55 8.02 876.59 -87.18 842.33 -157.77 789.77 -192.6 727.31 -180.13 663.89 -125.11 596 -33.75 534.72 73.05 483.54 161.97 432.34 213.3 391.99 208.38 363.82 143.77 335.65 42.95 321 -64.1 319.07 -155.32 317.13 -203.21 327.17 -199.97 346.25 -150.06 360.86 -63.98 376.93 38.7 386.09 145.19 376.95 237.46 347.47 307.01 290.94 353.09 210.23 375.24 107.6 380.32 -4.52 361.74 -140.52 319.72 -134.28 319 16.64 322.31 123.64 337.68 199.5 365.85 216.59 394.02 164.27 433.65 64.45 483.45 -49.16 533.24 -149.14 592.58 -202.6 658.35 -199.24 720.36 -143.72 782.38 -49.31 836.56 60.74 874.89 170.97 893.18 261.22 884.02 323.36 851.38 356.95 792.5 364.48 715.34 355.4 641.98 330.65 581.16 304.27 551.9 283.87 569.3 261.67 633.22 251.11 735.31 253.66 853.24 256.98 959.77 272.67 1024.38 300.83Q1024.38 300.83 1024.38 300.83" opacity="0.68"></path><path d="M990.38 451.29C997.32 477.11 951.29 513.81 866.28 559.55 760.56 604.45 655.97 656.29 571.25 710.88 516.96 759.57 498.23 803.64 510.57 835.61 550.7 851.31 603.78 845.68 657.74 814.59 712.37 766.48 753.11 699.77 776.93 625.01 790.01 563.55 786.92 522.96 771.69 518.4 749.27 558.37 720.78 638.98 690.62 747.64 658.56 860.65 628.57 952.98 602.75 998.57 576.93 985.59 556.51 916.95 539.88 813.55 521.34 699.19 502.86 599.77 480.53 533.45 451.02 508.71 411.59 523.98 358.72 568.05 295.1 634.31 217.29 702.31 128.82 759.24 41.03 805.42 -42.66 828.69 -109.67 830.29 -148.89 816 -153.32 786.49 -117.96 748.67 -52.17 703.59 37.72 657.99 133.48 616.67 208.52 573.95 249.32 538.6 242.38 512.78 185.1 486.95 95.92 471.89 -2.19 465.91 -122.54 457.85 -120.75 444.08 -10.91 412.08 84.12 370.7 178.09 310.36 260.76 230.34 330.77 139.57 381.93 40.97 416.12 -52.18 435.9 -123.14 445.48 -161.57 450.74 -155.76 449.75 -108.39 451.26 -23.67 459.03 80.72 465.62 174.16 481.07 237.58 506.89 250.58 532.71 205 567.67 117.92 609.78 14.87 650.71 -83.82 696.17 -149.75 741.9 -170.81 781.39 -147.33 814.32 -83.58 834.33 4.75 839.94 106.4 825.85 203.72 789.68 285.67 740.85 350.6 677.5 393.3 609.34 417.4 555.22 425.22 520.7 423.67 518.48 419.73 555.95 409.88 629.95 405 730.61 408.8 838.69 411.75 933.1 425.47 990.38 451.29Q990.38 451.29 990.38 451.29" opacity="0.92"></path><path d="M956.39 578.93C964.9 602.4 928.92 631.76 858.39 664.98 766.33 696.59 668.88 728.83 581.49 757.47 492.54 785.58 482.77 759.47 534.96 694.79 581.52 640.88 623.98 580.74 657.23 524.8 686.92 489.21 703.96 478.05 708.98 499.94 709.36 556.64 700.54 642.62 685.02 745.43 667.92 845.85 647 925.34 623.53 964.58 600.06 955.23 575.15 898.71 547.98 810.15 519.23 706.73 485.35 608.44 444.29 531.3 398.59 483.86 342.9 469.78 277.04 484.3 207.61 524.4 131.45 576.31 54.13 629.05 -14.36 682.85 -71.1 724.08 -106.76 749.78 -116.49 765.98 -96.07 767.01 -45.06 756.31 25.11 738.99 109.21 715.36 192.21 689.4 253.68 661.63 284.9 635.04 276.39 611.57 226.14 588.1 148.41 568.85 60.34 552.36 -26.58 534.05 -92.32 514.98 -127.45 491.62 -131.43 461.65 -102.27 421.97 -47.71 369.59 25.96 307.71 108.12 232.79 189.14 148.22 267.69 64.72 335.14 -15.02 389.66 -79.56 434.67 -118.51 468.45 -125.49 494.17 -95.26 513.92 -35.32 530.72 49.6 547.76 143.96 563.23 223.47 582.02 275.23 605.5 284.58 628.97 245.34 656 170.61 684.8 79.24 712.03 -14.5 737.93 -87.12 758.85 -126.61 773.82 -131.3 778.69 -99.09 769.87 -39.06 751.52 41.31 717.78 129.28 669.99 213.95 619.73 293.52 565.4 358.98 516.16 409.26 486.03 447.69 477.91 474.09 499.09 492.77 551.42 504.81 630.51 515.28 726.5 527.93 823.62 538.97 906.11 555.45 956.38 578.92Q956.39 578.93 956.39 578.93" opacity="0.86"></path><path d="M922.25 626.85C932.08 647.98 905.32 668.23 848.79 686.29 771.46 702.85 684.63 714.45 600.35 718.41 525.72 717.6 468.82 705.79 432.32 681.47 416.55 651.82 418.64 611.03 433.22 562.53 460.22 518.14 490.42 476.79 518.5 446.92 548.85 438.77 571.89 454.01 585.88 496.23 598.44 563.05 601.8 648.95 596.32 742.86 590.04 830 576.23 897.18 555.11 930.47 533.99 924.26 506.54 878.96 472.98 805.18 438.62 714.87 396.84 622.65 347.66 541.7 297.07 479.32 239.24 441.77 176.33 428.66 115.69 439.2 55.16 466.04 0.47 501.33 -41.78 545.37 -68.92 586.44 -75.14 619.71 -60.64 650.63 -22.69 670.27 36.45 678.74 105.24 683.4 180.04 679.02 249.23 667.55 297.6 654.72 320.08 637.24 310.25 616.12 266.52 595 199.78 571.22 122.49 544.22 42.09 515.85 -25.27 481.8 -71.16 440.54 -94.71 395.45 -90.86 341.04 -63.23 277.56 -15.99 211.73 44.96 140.33 112 68.6 183.9 5.62 252.49 -46.27 313.95 -78.8 371.77 -87.7 420.65 -69.11 460.98 -22.22 497.48 43.24 527.93 123.42 553.94 205.58 578.67 271.22 601.3 312.25 622.43 318.48 643.55 285.2 662.17 222.31 677.27 143.32 691.1 57.56 699.09 -16.31 699.2 -67.65 695.47 -94.4 681.38 -90.7 656.13 -60.55 627.22 -8.69 588.97 57.69 544.75 129.78 505.4 205.96 469.48 277.08 444.24 339.29 438.61 396.18 453.71 442.77 492.74 480.19 554.11 512.84 633.51 539.67 722.06 562.95 807.5 584.73 878.52 605.73 922.25 626.85Q922.25 626.85 922.25 626.85" opacity="0.29"></path><path d="M888.38 574C898.73 592.78 879.74 605.44 836 611.68 773.5 617.09 699.69 614.68 623.43 603.78 549.72 591.02 485.84 569.26 435.54 539.46 399.3 510.14 377.93 476.46 369.01 442.67 377.11 409.65 421.43 432.78 440.86 505.67 453.3 576.01 458.96 657.04 456.76 739.72 454.55 813.31 444.33 868.83 425.55 896.59 406.78 893.03 380.33 857.9 347.12 798.41 313.9 722.55 274.09 640.39 229.11 562.04 185.22 492.99 138.14 440.07 90.93 405.37 49.05 388.98 12.02 388.67 -15.65 399.91 -31.34 422.74 -32.23 449.29 -15.55 474.81 15.2 503.28 62.23 525.92 122.18 540.75 184.68 554.93 247.8 560.67 303.05 557.87 339.55 554.54 354.73 543.51 344.38 524.74 307.16 505.96 251.19 480.32 185.18 448.24 113.47 415.62 48.53 375.72 -2.64 329 -39.6 281.62 -55.91 228.07 -52.41 170.66 -32.11 116.19 3.27 62.69 48.56 15.24 102.39 -20.6 158.94 -42.55 214 -45.72 270.21 -30.57 321.46 5.5 366.21 60.79 409.74 125.38 446.86 196.85 477.48 265.47 507.47 317.71 531.99 349.03 550.77 352.59 569.55 324.83 581.7 273.11 587.12 206.77 591.93 131.34 588.97 61 577.98 4.42 565.78 -36.94 545.45 -55.63 518.18 -52.31 492.06 -30.13 462.47 8.62 433.24 58 412.56 116.4 399.43 177.03 398.67 235.3 414.72 294.04 447.87 346.73 498.59 392.02 563.52 435.46 639.14 472.03 718.1 502.03 791.35 531.21 851.13 555.21 888.37 573.99Q888.38 574 888.38 574" opacity="0.32"></path><path d="M854.37 443.62C853.95 476.48 771.77 477.82 648.67 451.85 517.29 428.23 413.24 388.72 349.7 356.65 321.75 363.23 317.89 416.55 317.42 525.09 325.97 663.36 318.32 795.64 285.46 862.58 252.6 835.94 197.64 726.64 132.14 588.47 75.66 460.03 28.24 376.76 13.12 341.98 33.59 348.53 102.78 372.59 210.07 389.36 309.09 412.09 377.95 410.59 378.37 377.73 298.24 344.87 180.7 283.76 75.04 204.08 -0.85 130.36 -16.34 55.02 17.74 5.39 86.67 -2.89 171.05 45.52 247.3 149.88 326.63 263.96 386.44 359.94 419.3 386.58 452.16 319.64 454.97 200.68 432.58 86.5 413.28 2.04 380.19 -16.41 354.33 20.06 363.3 95.21 413.65 186 513.63 266.57 643.38 349.49 774.24 410.76 854.37 443.62Q854.37 443.62 854.37 443.62" opacity="0.50"></path><path d="M820.39 293.89C825.29 322.06 767.31 326.72 672.04 315.45 559.26 311.15 454.72 306.33 374.6 318.63 314.85 361.33 277.86 440.01 253.49 551.06 237.66 670.73 219.14 776.24 190.97 828.58 162.8 811.51 127.66 729.59 94.68 617.09 70.24 497.79 63.27 400.01 86.1 335.39 129.3 298.91 203.97 284.75 296.1 277.2 370.72 278.23 417.29 268.77 412.39 240.61 347.8 212.44 252.62 168.23 159.33 118.38 77.02 77.12 34.01 47.33 30.19 46.89 53.45 74.59 98.85 142.48 148.7 241.13 205.05 332.98 251.91 403.5 280.08 420.59 308.25 368.26 315.07 274.17 307.53 175.14 306.48 84.72 305.04 35.92 318.69 30.13 359.42 54.74 432.29 103.53 535.24 156.64 649.18 216.71 755.78 265.72 820.38 293.88Q820.39 293.89 820.39 293.89" opacity="0.66"></path><path d="M786.39 191.31C794.9 214.78 757.82 229.6 690.21 241.3 603.18 259.64 512.88 286.9 433.81 331.76 361.97 394.32 306.52 479.79 266.19 579.62 231.12 675.69 203.02 755.35 179.55 794.58 156.08 785.23 139.46 728.1 133.85 643.64 133.5 544.99 152.32 451.44 193.4 376.17 241.7 314.42 307.11 271.52 376.93 241.88 427.33 218.86 454.9 197.9 446.39 174.43 396.14 150.95 322.98 127.2 246.86 109.54 170.23 98.5 115.77 104.77 88.27 135.75 76.79 180.26 86.68 248.9 108.47 330.35 136.19 397.6 165.1 445.21 188.57 454.59 212.05 415.36 227.85 345.23 240.81 266.35 259.69 183.72 286.43 123.14 328.67 91.35 386.93 77.25 466.28 86.62 560.12 108.95 653.44 137.93 736.11 167.83 786.38 191.3Q786.39 191.31 786.39 191.31" opacity="0.53"></path><path d="M752.33 181.51C762.75 200.29 742.65 223.51 700.23 252.52 641.45 285.33 574.74 329.96 510.7 387.57 445.88 451.72 390.09 527.59 346.94 606.5 305.57 676.89 274.72 732.76 255.94 760.53 237.16 756.99 232.23 721.09 241.06 664.07 251.67 592.48 278.15 517.38 318.36 449.55 357.79 384.52 404.58 331.44 449.6 291.72 478.26 255.04 490.75 227.32 480.33 208.54 443.04 189.76 390.53 181.71 333.97 185.84 271.86 193.03 220.28 216.8 184.9 257.22 155.91 300.44 143.34 355.62 144.61 413.45 149.29 456.7 162.31 484.99 181.09 488.53 199.86 460.76 222.63 412.5 250.49 355.88 281.76 290.73 323.63 234.78 377.24 195.24 437.23 162.24 508.72 146.91 584.59 146.65 654.92 150.17 715.04 162.73 752.33 181.51Q752.33 181.51 752.33 181.51" opacity="0.47"></path><path d="M718.39 268.98C723.29 297.15 663.36 368.01 584.28 468.1 491.73 568.73 417.51 674.24 389.35 726.58 361.18 709.51 384.39 626.76 440.02 533.6 482.19 432.15 519.29 356.07 514.39 327.9 449.79 299.73 365.87 324.82 305.9 389.35 248.58 445.59 232.55 505.51 260.72 522.58 288.88 470.24 355.91 387.56 450.15 323.85 547.03 260.68 653.79 240.81 718.39 268.98Q718.39 268.98 718.39 268.98" opacity="0.87"></path><path d="M684.38 414.68C676.93 452.24 564.74 609.62 527.19 692.57 489.63 654.67 540.93 516.83 548.38 479.27 451.67 441.72 358.07 518.67 395.63 556.57 433.18 473.62 587.67 377.13 684.38 414.68Q684.38 414.68 684.38 414.68" opacity="0.30"></path></g></svg>